<svg width="28" height="28" viewBox="0 0 28 28" fill="none" xmlns="http://www.w3.org/2000/svg">
<path d="M14 28C6.2692 28 0 21.7308 0 14C0 6.2692 6.2692 0 14 0C21.7308 0 28 6.2692 28 14C28 21.7308 21.7308 28 14 28Z" fill="url(#paint0_linear_52_37)"/>
<path d="M14 6.1656C16.5508 6.1656 16.8532 6.174 17.8612 6.2216C18.7936 6.2636 19.3004 6.4204 19.6364 6.552C20.0816 6.7256 20.4008 6.9328 20.734 7.266C21.0672 7.5992 21.2744 7.9184 21.448 8.3636C21.5796 8.6996 21.7336 9.2064 21.7784 10.1388C21.8232 11.1468 21.8344 11.4492 21.8344 14C21.8344 16.5508 21.826 16.8532 21.7784 17.8612C21.7364 18.7936 21.5796 19.3004 21.448 19.6364C21.2744 20.0816 21.0672 20.4008 20.734 20.734C20.4008 21.0672 20.0816 21.2744 19.6364 21.448C19.3004 21.5796 18.7936 21.7336 17.8612 21.7784C16.8532 21.8232 16.5508 21.8344 14 21.8344C11.4492 21.8344 11.1468 21.826 10.1388 21.7784C9.2064 21.7364 8.6996 21.5796 8.3636 21.448C7.9184 21.2744 7.5992 21.0672 7.266 20.734C6.9328 20.4008 6.7256 20.0816 6.552 19.6364C6.4204 19.3004 6.2664 18.7936 6.2216 17.8612C6.1768 16.8532 6.1656 16.5508 6.1656 14C6.1656 11.4492 6.174 11.1468 6.2216 10.1388C6.2636 9.2064 6.4204 8.6996 6.552 8.3636C6.7256 7.9184 6.9328 7.5992 7.266 7.266C7.5992 6.9328 7.9184 6.7256 8.3636 6.552C8.6996 6.4204 9.2064 6.2664 10.1388 6.2216C11.1468 6.174 11.4492 6.1656 14 6.1656ZM14 4.4436C11.4044 4.4436 11.0796 4.4548 10.0604 4.5024C9.044 4.55 8.3496 4.7096 7.7392 4.9476C7.112 5.1884 6.5772 5.516 6.048 6.048C5.516 6.58 5.1912 7.112 4.9448 7.742C4.7096 8.3496 4.5472 9.044 4.4996 10.0632C4.452 11.0824 4.4408 11.4072 4.4408 14.0028C4.4408 16.5984 4.452 16.9232 4.4996 17.9424C4.5472 18.9588 4.7068 19.6532 4.9448 20.2636C5.1884 20.888 5.516 21.4228 6.048 21.952C6.58 22.484 7.112 22.8088 7.742 23.0552C8.3496 23.2904 9.044 23.4528 10.0632 23.5004C11.0824 23.548 11.4072 23.5592 14.0028 23.5592C16.5984 23.5592 16.9232 23.548 17.9424 23.5004C18.9588 23.4528 19.6532 23.2932 20.2636 23.0552C20.888 22.8116 21.4228 22.484 21.952 21.952C22.484 21.42 22.8088 20.888 23.0552 20.258C23.2904 19.6504 23.4528 18.956 23.5004 17.9368C23.548 16.9176 23.5592 16.5928 23.5592 13.9972C23.5592 11.4016 23.548 11.0768 23.5004 10.0576C23.4528 9.0412 23.2932 8.3468 23.0552 7.7364C22.8116 7.112 22.484 6.5772 21.952 6.048C21.42 5.516 20.888 5.1912 20.258 4.9448C19.6504 4.7096 18.956 4.5472 17.9368 4.4996C16.9204 4.4548 16.5956 4.4436 14 4.4436Z" fill="white"/>
<path d="M14 9.09161C11.2896 9.09161 9.09161 11.2896 9.09161 14C9.09161 16.7104 11.2896 18.9084 14 18.9084C16.7104 18.9084 18.9084 16.7104 18.9084 14C18.9084 11.2896 16.7104 9.09161 14 9.09161ZM14 17.1864C12.2416 17.1864 10.8136 15.7612 10.8136 14C10.8136 12.2388 12.2416 10.8136 14 10.8136C15.7584 10.8136 17.1864 12.2388 17.1864 14C17.1864 15.7612 15.7584 17.1864 14 17.1864Z" fill="white"/>
<path d="M19.1016 10.0464C19.7356 10.0464 20.2496 9.53239 20.2496 8.89837C20.2496 8.26434 19.7356 7.75037 19.1016 7.75037C18.4676 7.75037 17.9536 8.26434 17.9536 8.89837C17.9536 9.53239 18.4676 10.0464 19.1016 10.0464Z" fill="white"/>
<defs>
<linearGradient id="paint0_linear_52_37" x1="4.1005" y1="23.8995" x2="23.8995" y2="4.1005" gradientUnits="userSpaceOnUse">
<stop stop-color="#FFD521"/>
<stop offset="0.0551048" stop-color="#FFD020"/>
<stop offset="0.1241" stop-color="#FEC01E"/>
<stop offset="0.2004" stop-color="#FCA71B"/>
<stop offset="0.2821" stop-color="#FA8316"/>
<stop offset="0.3681" stop-color="#F85510"/>
<stop offset="0.4563" stop-color="#F51E09"/>
<stop offset="0.5" stop-color="#F30005"/>
<stop offset="0.5035" stop-color="#F20007"/>
<stop offset="0.5966" stop-color="#E1003B"/>
<stop offset="0.6879" stop-color="#D30067"/>
<stop offset="0.7757" stop-color="#C70088"/>
<stop offset="0.8589" stop-color="#BF00A0"/>
<stop offset="0.9357" stop-color="#BB00AF"/>
<stop offset="1" stop-color="#B900B4"/>
</linearGradient>
</defs>
</svg>
