<svg width="120" height="120" viewBox="0 0 120 120" fill="none" xmlns="http://www.w3.org/2000/svg">
<circle cx="60" cy="60" r="60" fill="url(#paint0_linear_265_234)"/>
<path d="M77.3104 71.8916C81.2417 67.6249 80.8459 62.1458 80.8334 62.0833V45.4166C80.8334 44.8641 80.6139 44.3341 80.2232 43.9434C79.8325 43.5527 79.3026 43.3333 78.75 43.3333H66.25C63.9521 43.3333 62.0834 45.202 62.0834 47.4999V62.0833C62.0834 62.6358 62.3028 63.1657 62.6935 63.5564C63.0842 63.9471 63.6142 64.1666 64.1667 64.1666H70.5792C70.5352 65.1966 70.2274 66.198 69.6854 67.0749C68.6271 68.7437 66.6334 69.8833 63.7563 70.4583L62.0834 70.7916V76.6666H64.1667C69.9646 76.6666 74.3875 75.0603 77.3104 71.8916ZM54.3792 71.8916C58.3125 67.6249 57.9146 62.1458 57.9021 62.0833V45.4166C57.9021 44.8641 57.6826 44.3341 57.2919 43.9434C56.9012 43.5527 56.3713 43.3333 55.8188 43.3333H43.3188C41.0208 43.3333 39.1521 45.202 39.1521 47.4999V62.0833C39.1521 62.6358 39.3716 63.1657 39.7623 63.5564C40.153 63.9471 40.6829 64.1666 41.2354 64.1666H47.6479C47.6039 65.1966 47.2962 66.198 46.7542 67.0749C45.6959 68.7437 43.7021 69.8833 40.825 70.4583L39.1521 70.7916V76.6666H41.2354C47.0333 76.6666 51.4563 75.0603 54.3792 71.8916Z" fill="white"/>
<defs>
<linearGradient id="paint0_linear_265_234" x1="60" y1="0" x2="60" y2="150.942" gradientUnits="userSpaceOnUse">
<stop stop-color="#FF3131"/>
<stop offset="1" stop-color="#E65245"/>
</linearGradient>
</defs>
</svg>
